<svg xmlns="http://www.w3.org/2000/svg" style="isolation:isolate" viewBox="0 0 194.364 32.312" width="259.152" height="43.083">
  <defs>
    <clipPath id="a">
      <path d="M0 0h194.364v32.312H0z"/>
    </clipPath>
  </defs>
  <g clip-path="url(#a)">
    <path fill="none" d="M0 .056h184.86v32.256H0z"/>
    <linearGradient id="b" x1="-6.938893903907228e-18" y1="0.5000000000000001" x2="1.1296809414626026" y2="0.22563415927159824" gradientTransform="matrix(184.86,0,0,32.256,0,0)" gradientUnits="userSpaceOnUse">
      <stop offset="0%" stop-opacity="1" style="stop-color:#7868BA"></stop>
      <stop offset="79.13043478260869%" stop-opacity="1" style="stop-color:#F193B2"></stop>
    </linearGradient>
    <path d="M35.82 24.824H31.5l-4.536-14.76h4.824l2.484 9.216 3.528-8.928h3.204l3.492 8.928 2.484-9.216h4.824l-4.536 14.76h-4.284l-3.6-9.396-3.564 9.396zm21.672-6.804q.072 1.584 1.152 2.718 1.08 1.134 2.844 1.134 1.548 0 2.772-.594 1.224-.594 1.98-1.35l2.088 2.88q-.972 1.152-2.646 1.8-1.674.648-4.374.648-2.376 0-4.23-.954-1.854-.954-2.898-2.772-1.044-1.818-1.044-4.266 0-2.124.972-3.87t2.754-2.754q1.782-1.008 4.086-1.008 3.42 0 5.526 2.016T68.58 17.3q0 .54-.036.72H57.492zm6.732-1.98q-.072-1.368-.918-2.358-.846-.99-2.286-.99-1.476 0-2.412.972-.936.972-1.008 2.376h6.624zM71.712.056h4.536V12.44q.432-1.008 1.746-1.908 1.314-.9 3.33-.9 2.088 0 3.78 1.026 1.692 1.026 2.646 2.808.954 1.782.954 3.978 0 2.232-.954 4.014t-2.646 2.79q-1.692 1.008-3.78 1.008-1.836 0-3.222-.936t-1.89-2.088v2.592h-4.5V.056zM84.24 17.444q0-1.836-1.188-3.024t-2.844-1.188q-1.728 0-2.844 1.188-1.116 1.188-1.116 3.024t1.116 3.006q1.116 1.17 2.844 1.17 1.656 0 2.844-1.17t1.188-3.006zM99.576.632q1.944 0 3.528.432t2.574.936q.99.504 1.314.828l-2.16 3.636q-.72-.576-1.998-1.17T100.08 4.7q-1.692 0-2.664.648-.972.648-.972 1.8 0 1.116 1.098 1.944 1.098.828 3.474 1.764 2.988 1.152 4.806 2.952t1.818 4.608q0 2.196-1.188 3.744t-3.15 2.322q-1.962.774-4.338.774-2.124 0-3.978-.504t-3.06-1.116q-1.206-.612-1.53-.936l2.304-3.78q.36.324 1.368.846t2.322.936q1.314.414 2.61.414 1.908 0 2.934-.792 1.026-.792 1.026-2.124 0-1.368-1.242-2.304-1.242-.936-3.906-2.052-2.808-1.188-4.374-2.772-1.566-1.584-1.566-4.212 0-1.836 1.044-3.258t2.808-2.196q1.764-.774 3.852-.774zm12.924 9.432V3.98h4.5v6.084h3.528v3.744H117v5.22q0 2.232 1.44 2.232.504 0 .864-.18t.504-.324l1.62 3.42q-.324.288-1.548.684-1.224.396-2.7.396-2.124 0-3.402-1.224t-1.278-3.6v-6.624h-2.664v-3.744h2.664zm18.504 15.192q-2.34 0-4.212-1.008-1.872-1.008-2.916-2.772-1.044-1.764-1.044-3.996t1.044-4.014q1.044-1.782 2.916-2.808 1.872-1.026 4.212-1.026 2.304 0 4.14 1.026 1.836 1.026 2.862 2.808 1.026 1.782 1.026 4.014t-1.026 3.996q-1.026 1.764-2.844 2.772-1.818 1.008-4.158 1.008zm0-3.78q1.692 0 2.7-1.116 1.008-1.116 1.008-2.88 0-1.764-1.008-2.916t-2.7-1.152q-1.692 0-2.736 1.152-1.044 1.152-1.044 2.916t1.044 2.88q1.044 1.116 2.736 1.116zm19.944-11.844q.936 0 1.746.252.81.252 1.314.612l-1.8 3.708q-.324-.36-.954-.63-.63-.27-1.494-.27-1.08 0-1.854.594t-1.17 1.494q-.396.9-.396 1.728v7.704h-4.536v-14.76h4.536v2.088q.468-.9 1.674-1.71 1.206-.81 2.934-.81zm7.344-3.42q-1.116 0-1.908-.792-.792-.792-.792-1.872 0-1.116.792-1.908.792-.792 1.908-.792 1.08 0 1.89.792.81.792.81 1.908 0 1.08-.792 1.872t-1.908.792zm-2.34 3.852h4.536v14.76h-4.536v-14.76zm12.24 7.956q.072 1.584 1.152 2.718 1.08 1.134 2.844 1.134 1.548 0 2.772-.594 1.224-.594 1.98-1.35l2.088 2.88q-.972 1.152-2.646 1.8-1.674.648-4.374.648-2.376 0-4.23-.954-1.854-.954-2.898-2.772-1.044-1.818-1.044-4.266 0-2.124.972-3.87t2.754-2.754q1.782-1.008 4.086-1.008 3.42 0 5.526 2.016t2.106 5.652q0 .54-.036.72h-11.052zm6.732-1.98q-.072-1.368-.918-2.358-.846-.99-2.286-.99-1.476 0-2.412.972-.936.972-1.008 2.376h6.624zm13.752-6.408q1.332 0 2.52.252t1.962.576q.774.324.954.468l-1.584 2.736q-1.62-1.08-3.348-1.08-1.08 0-1.764.378-.684.378-.684 1.062 0 .648.72 1.062.72.414 2.16.774 2.088.432 3.42 1.422 1.332.99 1.332 3.006 0 2.664-2.034 3.816-2.034 1.152-4.878 1.152-2.232 0-3.69-.576-1.458-.576-2.106-1.044l1.584-3.06q.576.468 1.566.936.99.468 2.286.468 1.26 0 2.016-.45t.756-1.206q0-.792-.684-1.188-.684-.396-2.124-.72-4.68-1.08-4.68-4.536 0-1.98 1.836-3.114t4.464-1.134zM9.284 5.211c-.619.19-4.414 1.324-6.566 1.963-.784.23-1.529.479-1.663.549-.33.185-.709.604-.899.999-.15.314-.16.379-.155.839 0 .469.02.564.329 1.573.185.589.739 2.442 1.239 4.12 1.987 6.666 2.207 7.396 2.292 7.53l.09.145.085-.469c.154-.844 2.686-13.294 2.881-14.173.13-.589.33-.973.674-1.298A2.046 2.046 0 0 1 8.9 6.405c.334-.02.579.015 1.882.279.824.17 1.524.3 1.558.295.04-.01.02-.13-.065-.399-.299-.939-1.113-1.543-2.082-1.533-.255 0-.519.049-.909.164zm0 2.567c-.574.2-1.073.629-1.303 1.124-.07.165-.245.879-.44 1.837-1.258 6.128-2.287 11.216-2.312 11.421-.054.459.15 1.089.5 1.518.19.235.589.514.884.614.249.085 1.658.38 5.493 1.149 3.395.684 3.45.689 3.82.664.639-.055 1.348-.544 1.643-1.149.125-.259.195-.584 1.528-7.106 1.039-5.093 1.249-6.157 1.249-6.391 0-.799-.574-1.638-1.309-1.913-.434-.16-8.834-1.858-9.193-1.858-.17.005-.425.04-.56.09zm5.618 9.558" fill-rule="evenodd" fill="url(#b)"/>
  </g>
</svg>
